<svg xmlns="http://www.w3.org/2000/svg" width="375" viewBox="0 0 375 375" height="375" version="1.0"><defs><clipPath id="a"><path d="M 89.703125 95.742188 L 286.730469 95.742188 L 286.730469 292.769531 L 89.703125 292.769531 Z M 89.703125 95.742188"/></clipPath><clipPath id="b"><path d="M 112.441406 136 L 262 136 L 262 281.382812 L 112.441406 281.382812 Z M 112.441406 136"/></clipPath></defs><path d="M 187.390625 324.488281 C 150.785156 324.488281 116.320312 310.242188 90.457031 284.324219 C 64.539062 258.460938 50.292969 223.992188 50.292969 187.390625 C 50.292969 150.785156 64.539062 116.320312 90.457031 90.457031 C 116.320312 64.539062 150.785156 50.292969 187.390625 50.292969 C 223.992188 50.292969 258.460938 64.539062 284.324219 90.457031 C 310.242188 116.375 324.488281 150.785156 324.488281 187.390625 C 324.488281 223.992188 310.242188 258.460938 284.324219 284.324219 C 258.460938 310.242188 223.992188 324.488281 187.390625 324.488281 Z M 187.390625 58.511719 C 152.980469 58.511719 120.59375 71.933594 96.265625 96.265625 C 71.933594 120.59375 58.511719 152.980469 58.511719 187.390625 C 58.511719 221.800781 71.933594 254.1875 96.265625 278.515625 C 120.59375 302.84375 152.980469 316.269531 187.390625 316.269531 C 221.800781 316.269531 254.1875 302.84375 278.515625 278.515625 C 302.84375 254.1875 316.269531 221.800781 316.269531 187.390625 C 316.269531 152.980469 302.84375 120.59375 278.515625 96.265625 C 254.1875 71.933594 221.800781 58.511719 187.390625 58.511719 Z M 187.390625 58.511719"/><path fill="#BC1823" d="M 75.316406 188.023438 C 72.0625 188.023438 69.425781 190.660156 69.425781 193.914062 C 69.425781 197.164062 72.0625 199.800781 75.316406 199.800781 C 78.566406 199.800781 81.203125 197.164062 81.203125 193.914062 C 81.203125 190.660156 78.566406 188.023438 75.316406 188.023438"/><path fill="#BC1823" d="M 300.433594 188.023438 C 297.179688 188.023438 294.542969 190.660156 294.542969 193.914062 C 294.542969 197.164062 297.179688 199.800781 300.433594 199.800781 C 303.683594 199.800781 306.320312 197.164062 306.320312 193.914062 C 306.320312 190.660156 303.683594 188.023438 300.433594 188.023438"/><g clip-path="url(#a)"><path d="M 280.636719 220.523438 C 278.136719 229.027344 274.324219 237.09375 269.589844 244.527344 C 265.683594 250.574219 261.242188 256.257812 256.25 261.425781 C 255.601562 262.132812 254.882812 262.765625 254.195312 263.429688 C 253.5 264.085938 252.824219 264.761719 252.109375 265.398438 L 248.863281 268.222656 L 245.5 270.90625 C 244.742188 271.488281 243.957031 272.035156 243.1875 272.605469 C 241.667969 273.769531 240.050781 274.789062 238.46875 275.867188 C 238.238281 276.019531 238 276.179688 237.75 276.351562 C 237.492188 276.503906 237.222656 276.667969 236.945312 276.835938 C 236.386719 277.167969 235.785156 277.527344 235.144531 277.910156 C 233.878906 278.707031 232.382812 279.453125 230.765625 280.3125 C 230.359375 280.519531 229.953125 280.75 229.523438 280.957031 C 229.089844 281.15625 228.652344 281.363281 228.203125 281.570312 C 227.304688 281.984375 226.375 282.414062 225.414062 282.859375 C 223.445312 283.628906 221.390625 284.550781 219.152344 285.269531 C 210.316406 288.472656 199.285156 290.453125 188.21875 290.5 C 177.148438 290.453125 166.117188 288.472656 157.28125 285.269531 C 155.042969 284.550781 152.992188 283.628906 151.023438 282.859375 C 150.0625 282.414062 149.132812 281.984375 148.234375 281.570312 C 147.785156 281.363281 147.34375 281.15625 146.910156 280.957031 C 146.484375 280.75 146.074219 280.519531 145.667969 280.3125 C 144.054688 279.453125 142.554688 278.707031 141.292969 277.910156 C 140.652344 277.527344 140.050781 277.167969 139.492188 276.835938 C 139.210938 276.667969 138.945312 276.503906 138.6875 276.351562 C 138.4375 276.183594 138.195312 276.019531 137.96875 275.867188 C 131.953125 271.929688 126.304688 267.453125 121.171875 262.421875 C 115.753906 257.011719 111.019531 250.953125 106.84375 244.527344 C 102.109375 237.097656 98.296875 229.027344 95.800781 220.523438 C 93.199219 212.046875 91.996094 203.152344 91.917969 194.257812 C 91.996094 185.359375 93.199219 176.464844 95.800781 167.988281 C 98.296875 159.484375 102.109375 151.417969 106.84375 143.988281 C 110.75 137.941406 115.195312 132.257812 120.1875 127.085938 C 120.832031 126.382812 121.554688 125.75 122.238281 125.082031 C 122.933594 124.429688 123.613281 123.75 124.324219 123.113281 L 127.570312 120.289062 L 128.691406 119.398438 L 130.933594 117.605469 C 131.695312 117.027344 132.476562 116.476562 133.246094 115.910156 C 134.765625 114.746094 136.382812 113.722656 137.96875 112.644531 C 138.195312 112.492188 138.433594 112.332031 138.683594 112.164062 C 138.941406 112.007812 139.210938 111.847656 139.492188 111.679688 C 140.050781 111.34375 140.652344 110.984375 141.289062 110.601562 C 142.554688 109.808594 144.050781 109.058594 145.667969 108.199219 C 146.074219 107.992188 146.480469 107.761719 146.910156 107.558594 C 147.34375 107.355469 147.785156 107.152344 148.234375 106.941406 C 149.132812 106.527344 150.0625 106.097656 151.023438 105.65625 C 152.988281 104.886719 155.042969 103.960938 157.28125 103.242188 C 166.117188 100.039062 177.148438 98.058594 188.21875 98.011719 C 199.285156 98.058594 210.316406 100.039062 219.152344 103.242188 C 221.390625 103.960938 223.445312 104.886719 225.414062 105.65625 C 226.375 106.097656 227.304688 106.527344 228.203125 106.941406 C 228.652344 107.152344 229.089844 107.355469 229.523438 107.554688 C 229.953125 107.761719 230.359375 107.992188 230.765625 108.199219 C 232.382812 109.058594 233.878906 109.808594 235.144531 110.601562 C 235.785156 110.984375 236.386719 111.34375 236.945312 111.679688 C 237.222656 111.847656 237.492188 112.007812 237.75 112.164062 C 238 112.332031 238.238281 112.492188 238.46875 112.644531 C 244.480469 116.585938 250.128906 121.0625 255.265625 126.089844 C 260.679688 131.5 265.414062 137.558594 269.589844 143.984375 C 274.324219 151.417969 278.136719 159.484375 280.636719 167.988281 C 283.238281 176.464844 284.4375 185.359375 284.515625 194.257812 C 284.4375 203.152344 283.238281 212.046875 280.636719 220.523438 Z M 286.730469 194.191406 L 286.726562 194.183594 C 286.648438 185.097656 285.425781 176.011719 282.777344 167.34375 C 280.234375 158.652344 276.335938 150.398438 271.476562 142.820312 L 269.140625 139.308594 C 269.140625 139.308594 268.464844 138.367188 267.453125 136.949219 C 266.476562 135.503906 264.984375 133.722656 263.558594 131.890625 C 262.023438 130.152344 260.550781 128.355469 259.3125 127.132812 C 258.109375 125.875 257.308594 125.039062 257.308594 125.039062 C 257.308594 125.039062 257.105469 124.832031 256.738281 124.480469 C 256.375 124.128906 255.855469 123.625 255.226562 123.019531 C 254.007812 121.777344 252.238281 120.277344 250.5 118.742188 C 249.605469 118 248.691406 117.292969 247.84375 116.609375 C 247.417969 116.269531 247.003906 115.945312 246.617188 115.632812 C 246.210938 115.34375 245.828125 115.066406 245.476562 114.8125 C 244.066406 113.792969 243.125 113.117188 243.125 113.117188 C 243.125 113.117188 242.921875 112.949219 242.589844 112.734375 C 242.261719 112.515625 241.824219 112.222656 241.386719 111.929688 C 240.511719 111.34375 239.636719 110.757812 239.636719 110.757812 C 239.402344 110.601562 239.15625 110.433594 238.902344 110.261719 C 238.636719 110.101562 238.363281 109.9375 238.078125 109.765625 C 237.507812 109.421875 236.894531 109.050781 236.238281 108.660156 C 234.945312 107.84375 233.414062 107.074219 231.761719 106.195312 C 231.347656 105.980469 230.929688 105.742188 230.492188 105.53125 C 230.050781 105.328125 229.597656 105.117188 229.140625 104.902344 C 228.222656 104.476562 227.269531 104.035156 226.285156 103.582031 C 224.273438 102.789062 222.171875 101.847656 219.882812 101.109375 C 210.835938 97.824219 199.542969 95.789062 188.21875 95.742188 C 176.890625 95.789062 165.597656 97.824219 156.554688 101.109375 C 154.261719 101.847656 152.160156 102.789062 150.148438 103.582031 C 149.164062 104.035156 148.214844 104.476562 147.292969 104.902344 C 146.835938 105.117188 146.386719 105.328125 145.941406 105.53125 C 145.503906 105.742188 145.085938 105.980469 144.671875 106.195312 C 143.019531 107.074219 141.488281 107.84375 140.195312 108.660156 C 139.542969 109.050781 138.925781 109.421875 138.355469 109.765625 C 138.070312 109.9375 137.796875 110.101562 137.53125 110.261719 C 137.277344 110.433594 137.03125 110.601562 136.796875 110.757812 C 136.796875 110.757812 135.925781 111.34375 135.046875 111.929688 C 134.609375 112.222656 134.175781 112.515625 133.847656 112.734375 C 133.515625 112.949219 133.308594 113.117188 133.308594 113.117188 C 133.308594 113.117188 132.371094 113.792969 130.957031 114.8125 C 130.605469 115.066406 130.222656 115.34375 129.820312 115.632812 C 129.429688 115.945312 129.019531 116.269531 128.59375 116.609375 C 127.746094 117.292969 126.828125 118 125.9375 118.742188 C 124.199219 120.277344 122.425781 121.777344 121.207031 123.019531 C 120.582031 123.625 120.0625 124.128906 119.695312 124.480469 C 119.328125 124.832031 119.128906 125.039062 119.128906 125.039062 C 119.128906 125.039062 118.324219 125.875 117.121094 127.132812 C 115.882812 128.355469 114.410156 130.152344 112.875 131.890625 C 111.449219 133.722656 109.957031 135.503906 108.980469 136.949219 C 107.96875 138.367188 107.292969 139.3125 107.292969 139.3125 L 104.957031 142.820312 C 100.097656 150.398438 96.199219 158.652344 93.65625 167.34375 C 91.007812 176.011719 89.789062 185.101562 89.707031 194.183594 L 89.707031 194.191406 L 89.703125 194.257812 L 89.707031 194.320312 L 89.707031 194.328125 C 89.789062 203.414062 91.007812 212.503906 93.65625 221.167969 C 96.199219 229.863281 100.097656 238.113281 104.957031 245.691406 L 107.292969 249.203125 C 107.292969 249.203125 107.96875 250.148438 108.980469 251.5625 C 109.957031 253.007812 111.449219 254.789062 112.875 256.621094 C 114.410156 258.363281 115.882812 260.15625 117.121094 261.382812 C 118.324219 262.636719 119.128906 263.472656 119.128906 263.472656 C 119.128906 263.472656 119.328125 263.683594 119.695312 264.03125 C 120.0625 264.386719 120.582031 264.890625 121.207031 265.492188 C 122.425781 266.738281 124.199219 268.234375 125.9375 269.769531 C 126.828125 270.511719 127.746094 271.222656 128.59375 271.902344 C 129.019531 272.242188 129.429688 272.570312 129.820312 272.878906 C 130.222656 273.171875 130.605469 273.445312 130.957031 273.699219 C 132.371094 274.71875 133.308594 275.398438 133.308594 275.398438 C 133.308594 275.398438 133.515625 275.5625 133.847656 275.777344 C 134.175781 275.996094 134.613281 276.289062 135.046875 276.582031 C 135.925781 277.167969 136.800781 277.753906 136.800781 277.753906 C 137.035156 277.914062 137.277344 278.078125 137.53125 278.25 C 137.796875 278.410156 138.070312 278.578125 138.355469 278.75 C 138.925781 279.09375 139.542969 279.460938 140.195312 279.855469 C 141.488281 280.667969 143.019531 281.4375 144.671875 282.320312 C 145.085938 282.535156 145.503906 282.769531 145.945312 282.980469 C 146.386719 283.1875 146.835938 283.394531 147.292969 283.609375 C 148.214844 284.035156 149.167969 284.476562 150.148438 284.933594 C 152.164062 285.722656 154.261719 286.667969 156.554688 287.40625 C 165.597656 290.691406 176.890625 292.722656 188.21875 292.769531 C 199.542969 292.722656 210.835938 290.691406 219.882812 287.402344 C 222.171875 286.667969 224.273438 285.722656 226.289062 284.929688 C 227.269531 284.476562 228.222656 284.035156 229.140625 283.609375 C 229.597656 283.394531 230.050781 283.183594 230.492188 282.980469 C 230.929688 282.769531 231.347656 282.535156 231.765625 282.320312 C 233.417969 281.4375 234.945312 280.667969 236.238281 279.855469 C 236.894531 279.460938 237.507812 279.089844 238.078125 278.75 C 238.363281 278.578125 238.640625 278.410156 238.902344 278.25 C 239.15625 278.078125 239.402344 277.914062 239.636719 277.753906 C 239.636719 277.753906 240.511719 277.167969 241.386719 276.582031 C 241.824219 276.289062 242.261719 275.996094 242.589844 275.777344 C 242.921875 275.5625 243.125 275.398438 243.125 275.398438 C 243.125 275.398438 244.066406 274.71875 245.476562 273.699219 C 245.828125 273.445312 246.210938 273.171875 246.617188 272.878906 C 247.003906 272.570312 247.417969 272.242188 247.84375 271.902344 C 248.691406 271.222656 249.605469 270.511719 250.5 269.769531 C 252.238281 268.234375 254.007812 266.738281 255.226562 265.492188 C 255.855469 264.890625 256.375 264.386719 256.738281 264.03125 C 257.105469 263.683594 257.308594 263.472656 257.308594 263.472656 C 257.308594 263.472656 258.109375 262.636719 259.3125 261.382812 C 260.550781 260.15625 262.023438 258.363281 263.558594 256.621094 C 264.984375 254.789062 266.476562 253.007812 267.453125 251.5625 C 268.464844 250.144531 269.140625 249.203125 269.140625 249.203125 L 271.476562 245.691406 C 276.335938 238.113281 280.234375 229.859375 282.777344 221.167969 C 285.425781 212.5 286.648438 203.414062 286.726562 194.328125 L 286.730469 194.320312 L 286.730469 194.191406"/></g><g clip-path="url(#b)"><path fill="#BC1823" d="M 187.394531 146.835938 C 186.777344 146.835938 186.191406 146.695312 185.640625 146.40625 C 183.753906 145.429688 181.75 145 179.628906 145.117188 C 175.496094 145.257812 174.585938 146.800781 170.597656 147.640625 C 166.609375 148.480469 164.089844 147.992188 159.46875 152.898438 C 152.328125 154.511719 144.910156 157.945312 137.074219 158.015625 C 130.144531 158.082031 123.402344 154.675781 122.722656 146.589844 C 122.722656 146.589844 122.308594 140.429688 122.472656 138.386719 C 122.59375 136.871094 121.957031 135.855469 121.070312 136.085938 C 116.984375 137.152344 113.320312 147.542969 112.917969 151.675781 C 112.449219 156.425781 113.832031 160.710938 117.34375 165.425781 C 120.351562 169.464844 124.863281 173.050781 131.261719 174.136719 C 141.015625 171.875 147.195312 173.949219 149.679688 175.128906 C 149.777344 175.171875 149.808594 175.246094 149.773438 175.347656 C 149.738281 175.449219 149.667969 175.488281 149.566406 175.464844 C 134.273438 171.933594 123.070312 183.046875 115.519531 177.097656 C 115.4375 177.027344 115.34375 177.015625 115.242188 177.0625 C 115.144531 177.105469 115.089844 177.179688 115.082031 177.289062 C 114.816406 180.070312 117.816406 181.667969 118.238281 181.847656 C 118.238281 181.847656 116.035156 182.351562 114.675781 180.667969 C 114.632812 180.613281 114.578125 180.589844 114.507812 180.601562 C 114.441406 180.613281 114.398438 180.65625 114.378906 180.722656 C 113.105469 186.8125 117.957031 197.304688 127.828125 199.019531 C 134.082031 200.105469 136.261719 198.644531 139.71875 198.457031 C 141.042969 198.386719 142.703125 198.277344 144.632812 198.871094 C 144.78125 198.925781 144.890625 198.882812 144.960938 198.738281 C 145.027344 198.597656 144.992188 198.484375 144.855469 198.40625 C 136.152344 192.421875 121.832031 198.777344 120.972656 184.160156 C 128.179688 185.910156 136.71875 183.808594 137.980469 182.546875 C 137.914062 183.609375 135.527344 185.613281 132.601562 185.644531 C 132.546875 185.644531 132.511719 185.671875 132.5 185.722656 C 132.488281 185.777344 132.503906 185.816406 132.554688 185.839844 C 137.355469 187.902344 139.671875 183.957031 142.320312 184.226562 C 141.46875 184.8125 140.898438 185.601562 140.613281 186.597656 C 140.574219 186.71875 140.605469 186.816406 140.703125 186.894531 C 140.800781 186.96875 140.90625 186.972656 141.011719 186.90625 C 142.765625 185.761719 145.46875 184.621094 147.222656 185 C 146.351562 185.546875 145.695312 186.28125 145.246094 187.207031 C 145.199219 187.300781 145.210938 187.386719 145.277344 187.464844 C 145.347656 187.542969 145.429688 187.566406 145.53125 187.535156 C 146.492188 187.234375 147.429688 187.300781 148.339844 187.730469 C 149.046875 186.085938 151.03125 183.894531 153.222656 183.027344 C 153.320312 182.988281 153.394531 183.015625 153.445312 183.105469 C 153.496094 183.199219 153.480469 183.273438 153.398438 183.335938 C 149.632812 186.265625 147.828125 195.324219 152.058594 200.875 C 152.601562 201.570312 152.859375 202.359375 152.832031 203.246094 C 152.53125 210.40625 156.363281 219.375 158.140625 223.625 C 160.550781 229.386719 159.886719 241.433594 161.539062 246.402344 C 161.570312 246.5 161.640625 246.550781 161.746094 246.550781 C 161.851562 246.550781 161.921875 246.5 161.957031 246.402344 C 163.296875 242.75 169.484375 241.570312 169.257812 230.734375 C 169.253906 230.597656 169.320312 230.515625 169.453125 230.488281 C 169.589844 230.460938 169.679688 230.511719 169.730469 230.640625 C 171.179688 234.890625 169.882812 239.851562 168.359375 242.269531 C 167.386719 243.808594 164.46875 247.226562 163.320312 250.679688 C 161.917969 254.886719 162.480469 257.207031 162.480469 259.792969 C 162.480469 262.457031 161.03125 266.472656 161.5 269.1875 C 162.058594 272.410156 164.578125 277.039062 168.640625 277.039062 C 173.1875 277.039062 175.324219 273.53125 179.75 273.703125 C 179.882812 273.710938 179.960938 273.78125 179.984375 273.914062 C 180.007812 274.042969 179.957031 274.136719 179.832031 274.1875 C 177.371094 275.203125 175.078125 276.707031 175.078125 277.457031 C 175.078125 278.859375 176.617188 281.105469 181.097656 280.121094 C 182.21875 280.894531 184.804688 281.28125 187.394531 281.28125 C 189.984375 281.28125 192.574219 280.894531 193.695312 280.125 C 198.175781 281.105469 199.714844 278.863281 199.714844 277.460938 C 199.714844 276.707031 197.421875 275.207031 194.960938 274.191406 C 194.835938 274.140625 194.785156 274.046875 194.808594 273.917969 C 194.832031 273.785156 194.910156 273.714844 195.042969 273.707031 C 199.46875 273.535156 201.605469 277.042969 206.15625 277.042969 C 210.214844 277.042969 212.734375 272.414062 213.292969 269.191406 C 213.765625 266.476562 212.3125 262.460938 212.3125 259.796875 C 212.3125 257.210938 212.875 254.890625 211.472656 250.683594 C 210.324219 247.230469 207.40625 243.8125 206.433594 242.273438 C 204.910156 239.855469 203.617188 234.894531 205.066406 230.644531 C 205.113281 230.515625 205.207031 230.464844 205.339844 230.492188 C 205.472656 230.519531 205.539062 230.601562 205.535156 230.738281 C 205.308594 241.574219 211.496094 242.753906 212.835938 246.40625 C 212.871094 246.503906 212.941406 246.554688 213.046875 246.554688 C 213.152344 246.554688 213.222656 246.503906 213.257812 246.40625 C 214.90625 241.4375 214.246094 229.390625 216.652344 223.628906 C 218.429688 219.378906 222.261719 210.410156 221.960938 203.25 C 221.933594 202.363281 222.191406 201.574219 222.734375 200.878906 C 226.964844 195.328125 225.160156 186.269531 221.398438 183.339844 C 221.3125 183.277344 221.296875 183.203125 221.347656 183.109375 C 221.398438 183.019531 221.472656 182.992188 221.570312 183.03125 C 223.761719 183.898438 225.746094 186.089844 226.453125 187.734375 C 227.363281 187.304688 228.300781 187.238281 229.265625 187.539062 C 229.363281 187.570312 229.445312 187.546875 229.515625 187.46875 C 229.582031 187.390625 229.59375 187.304688 229.546875 187.210938 C 229.101562 186.285156 228.441406 185.550781 227.570312 185.003906 C 229.324219 184.625 232.03125 185.765625 233.78125 186.910156 C 233.890625 186.980469 233.992188 186.972656 234.089844 186.898438 C 234.191406 186.820312 234.21875 186.722656 234.179688 186.601562 C 233.894531 185.605469 233.324219 184.816406 232.472656 184.230469 C 235.121094 183.960938 237.4375 187.90625 242.238281 185.84375 C 242.289062 185.820312 242.308594 185.78125 242.292969 185.726562 C 242.28125 185.675781 242.25 185.648438 242.191406 185.648438 C 239.265625 185.617188 236.878906 183.613281 236.8125 182.550781 C 238.074219 183.8125 246.613281 185.914062 253.820312 184.164062 C 252.960938 198.78125 238.640625 192.425781 229.9375 198.410156 C 229.800781 198.488281 229.765625 198.601562 229.835938 198.742188 C 229.902344 198.886719 230.011719 198.929688 230.160156 198.875 C 232.09375 198.28125 233.753906 198.390625 235.074219 198.460938 C 238.53125 198.648438 240.710938 200.109375 246.964844 199.023438 C 256.835938 197.308594 261.6875 186.816406 260.414062 180.726562 C 260.394531 180.660156 260.351562 180.617188 260.285156 180.605469 C 260.214844 180.59375 260.160156 180.617188 260.117188 180.671875 C 258.757812 182.355469 256.554688 181.851562 256.554688 181.851562 C 256.980469 181.671875 259.980469 180.074219 259.710938 177.292969 C 259.703125 177.183594 259.648438 177.109375 259.550781 177.066406 C 259.449219 177.019531 259.355469 177.03125 259.273438 177.101562 C 251.722656 183.050781 240.519531 171.9375 225.226562 175.46875 C 225.125 175.492188 225.054688 175.453125 225.019531 175.351562 C 224.984375 175.25 225.015625 175.175781 225.113281 175.132812 C 227.597656 173.953125 233.777344 171.882812 243.535156 174.140625 C 249.929688 173.054688 254.441406 169.46875 257.453125 165.429688 C 260.964844 160.714844 262.347656 156.429688 261.878906 151.679688 C 261.472656 147.542969 257.8125 137.152344 253.726562 136.089844 C 252.839844 135.859375 252.199219 136.871094 252.324219 138.390625 C 252.488281 140.433594 252.074219 146.589844 252.074219 146.589844 C 251.394531 154.679688 244.652344 158.082031 237.722656 158.019531 C 229.882812 157.949219 222.464844 154.511719 215.328125 152.902344 C 210.703125 147.988281 208.183594 148.480469 204.195312 147.640625 C 200.203125 146.796875 199.296875 145.257812 195.164062 145.117188 C 193.042969 144.996094 191.039062 145.429688 189.152344 146.40625 C 188.601562 146.691406 188.015625 146.835938 187.394531 146.835938 Z M 187.394531 258.675781 C 181.960938 258.675781 173.714844 257.371094 170.792969 250.347656 C 170.753906 250.246094 170.683594 250.199219 170.578125 250.203125 C 170.472656 250.203125 170.398438 250.253906 170.367188 250.355469 C 168.984375 253.957031 172.90625 257.390625 172.90625 259.09375 C 172.90625 260.777344 170.675781 263.554688 173.433594 265.300781 C 175.226562 266.433594 177.53125 265.613281 178.511719 262.910156 C 178.550781 262.789062 178.632812 262.734375 178.757812 262.746094 C 178.882812 262.761719 178.953125 262.832031 178.960938 262.957031 C 179.15625 265.347656 178.109375 268.664062 174.378906 268.664062 C 169.863281 268.664062 169.023438 263.828125 169.339844 260.777344 C 169.621094 258.058594 168.8125 256.464844 167.132812 255.835938 C 165.453125 255.207031 165.386719 252.453125 165.875 250.894531 C 166.398438 249.210938 167.867188 248.6875 168.605469 246.898438 C 168.972656 246 170.179688 245.109375 172.59375 245.109375 C 176.164062 245.109375 180.046875 250.15625 187.398438 250.15625 C 194.746094 250.15625 198.628906 245.109375 202.199219 245.109375 C 204.617188 245.109375 205.820312 246 206.191406 246.898438 C 206.925781 248.6875 208.394531 249.210938 208.921875 250.894531 C 209.40625 252.453125 209.339844 255.207031 207.660156 255.835938 C 205.980469 256.46875 205.175781 258.058594 205.457031 260.777344 C 205.769531 263.828125 204.929688 268.664062 200.414062 268.664062 C 196.6875 268.664062 195.636719 265.347656 195.832031 262.957031 C 195.84375 262.832031 195.910156 262.761719 196.035156 262.746094 C 196.164062 262.734375 196.246094 262.789062 196.28125 262.910156 C 197.261719 265.613281 199.566406 266.433594 201.363281 265.300781 C 204.121094 263.558594 201.886719 260.777344 201.886719 259.09375 C 201.886719 257.390625 205.8125 253.957031 204.429688 250.355469 C 204.394531 250.253906 204.324219 250.203125 204.21875 250.203125 C 204.113281 250.199219 204.039062 250.246094 204 250.347656 C 201.078125 257.371094 192.835938 258.675781 187.398438 258.675781 Z M 221.488281 169.507812 C 221.445312 169.640625 221.355469 169.691406 221.21875 169.671875 C 221.082031 169.648438 221.015625 169.566406 221.015625 169.429688 C 221.0625 166.011719 220.234375 161.109375 219.210938 159.09375 C 219.160156 159 219.167969 158.914062 219.234375 158.832031 C 219.300781 158.746094 219.382812 158.722656 219.484375 158.75 C 227.175781 161.042969 238.941406 163.8125 245.457031 160.992188 C 252.695312 157.859375 255.160156 152.253906 254.171875 144.695312 C 254.136719 144.425781 254.558594 144.371094 254.660156 144.625 C 256.800781 149.964844 256.65625 153.960938 253.242188 158.71875 C 250.238281 162.90625 245.363281 165.445312 239.9375 165.707031 C 234.445312 165.972656 228.117188 165.089844 224.789062 165.1875 C 224.273438 165.203125 223.800781 165.359375 223.375 165.648438 C 222.949219 165.941406 222.636719 166.328125 222.433594 166.804688 C 222.136719 167.519531 221.847656 168.441406 221.488281 169.507812 Z M 213.601562 200.558594 C 213.109375 193.734375 217.269531 190.222656 219.523438 190.222656 C 220.574219 190.222656 222.566406 191.695312 221.308594 195.691406 C 219.988281 199.882812 215.636719 200.808594 214.148438 201.003906 C 214.011719 201.023438 213.886719 200.988281 213.777344 200.898438 C 213.671875 200.8125 213.609375 200.695312 213.601562 200.558594 Z M 205.214844 206.75 C 204.890625 206.257812 204.722656 205.71875 204.714844 205.128906 C 204.703125 204.539062 204.851562 203.992188 205.160156 203.488281 C 206.585938 201.191406 208.324219 197.285156 208.863281 194.828125 C 208.890625 194.683594 208.980469 194.609375 209.128906 194.609375 C 209.277344 194.609375 209.371094 194.679688 209.402344 194.828125 C 209.964844 197.917969 207.660156 202.292969 207.660156 204.523438 C 207.660156 207.785156 208.710938 209.78125 210.535156 212.25 C 210.71875 212.5 210.335938 212.792969 210.109375 212.582031 C 208.269531 210.8125 206.640625 208.871094 205.214844 206.75 Z M 153.304688 169.507812 C 152.945312 168.441406 152.65625 167.519531 152.359375 166.804688 C 152.160156 166.328125 151.84375 165.941406 151.417969 165.648438 C 150.992188 165.355469 150.519531 165.203125 150.003906 165.1875 C 146.679688 165.089844 140.351562 165.972656 134.855469 165.707031 C 129.433594 165.445312 124.554688 162.90625 121.550781 158.71875 C 118.136719 153.960938 117.992188 149.964844 120.132812 144.625 C 120.234375 144.371094 120.660156 144.425781 120.625 144.695312 C 119.632812 152.25 122.101562 157.859375 129.339844 160.992188 C 135.851562 163.8125 147.617188 161.042969 155.308594 158.75 C 155.410156 158.722656 155.496094 158.746094 155.5625 158.832031 C 155.628906 158.914062 155.636719 159 155.582031 159.09375 C 154.5625 161.109375 153.730469 166.011719 153.78125 169.429688 C 153.78125 169.566406 153.714844 169.648438 153.578125 169.671875 C 153.441406 169.691406 153.351562 169.636719 153.308594 169.507812 Z M 161.191406 200.558594 C 161.183594 200.695312 161.121094 200.808594 161.015625 200.898438 C 160.90625 200.984375 160.785156 201.019531 160.644531 201.003906 C 159.15625 200.804688 154.808594 199.878906 153.484375 195.691406 C 152.226562 191.695312 154.21875 190.222656 155.269531 190.222656 C 157.527344 190.222656 161.683594 193.734375 161.191406 200.558594 Z M 169.578125 206.75 C 168.15625 208.867188 166.523438 210.8125 164.6875 212.582031 C 164.457031 212.789062 164.078125 212.5 164.261719 212.25 C 166.085938 209.78125 167.132812 207.785156 167.132812 204.523438 C 167.132812 202.289062 164.832031 197.917969 165.394531 194.824219 C 165.425781 194.679688 165.515625 194.605469 165.664062 194.609375 C 165.8125 194.609375 165.902344 194.683594 165.933594 194.828125 C 166.472656 197.28125 168.210938 201.1875 169.632812 203.488281 C 169.941406 203.992188 170.089844 204.539062 170.082031 205.128906 C 170.070312 205.71875 169.902344 206.257812 169.574219 206.75 Z M 169.578125 206.75" fill-rule="evenodd"/></g><g fill="#BC1823"><g><g><path d="M 8.140625 -14.296875 L -0.203125 -19.015625 L 4.328125 -11.015625 L 3.5 -9.5625 L -5.5 -9.328125 L 2.65625 -4.671875 L 0.9375 -1.640625 L -12.953125 -9.5625 L -11.4375 -12.21875 L 0.171875 -12.5 L -5.5625 -22.546875 L -4.046875 -25.1875 L 9.859375 -17.3125 Z M 8.140625 -14.296875" transform="translate(92.546 150.085)"/></g></g></g><g fill="#BC1823"><g><g><path d="M -11.359375 -11.421875 L -9.0625 -14.328125 L 3.46875 -4.390625 L 1.171875 -1.484375 Z M -11.359375 -11.421875" transform="translate(104.434 130.498)"/></g></g></g><g fill="#BC1823"><g><g><path d="M 5.28125 -4.828125 C 4.382812 -3.929688 3.394531 -3.191406 2.3125 -2.609375 C 1.226562 -2.023438 0.238281 -1.679688 -0.65625 -1.578125 L -1.71875 -4.421875 C -0.882812 -4.554688 -0.03125 -4.847656 0.84375 -5.296875 C 1.726562 -5.742188 2.507812 -6.300781 3.1875 -6.96875 C 3.9375 -7.707031 4.378906 -8.363281 4.515625 -8.9375 C 4.660156 -9.507812 4.550781 -9.976562 4.1875 -10.34375 C 3.90625 -10.625 3.570312 -10.75 3.1875 -10.71875 C 2.800781 -10.6875 2.390625 -10.554688 1.953125 -10.328125 C 1.515625 -10.109375 0.953125 -9.785156 0.265625 -9.359375 C -0.804688 -8.710938 -1.71875 -8.21875 -2.46875 -7.875 C -3.226562 -7.53125 -4.03125 -7.390625 -4.875 -7.453125 C -5.71875 -7.515625 -6.515625 -7.925781 -7.265625 -8.6875 C -7.921875 -9.34375 -8.332031 -10.113281 -8.5 -11 C -8.675781 -11.894531 -8.5625 -12.851562 -8.15625 -13.875 C -7.75 -14.90625 -7.023438 -15.9375 -5.984375 -16.96875 C -5.253906 -17.6875 -4.457031 -18.300781 -3.59375 -18.8125 C -2.726562 -19.332031 -1.878906 -19.6875 -1.046875 -19.875 L 0.140625 -17.0625 C -1.503906 -16.632812 -2.851562 -15.898438 -3.90625 -14.859375 C -4.644531 -14.128906 -5.070312 -13.46875 -5.1875 -12.875 C -5.300781 -12.289062 -5.164062 -11.800781 -4.78125 -11.40625 C -4.382812 -11.019531 -3.890625 -10.929688 -3.296875 -11.140625 C -2.710938 -11.359375 -1.910156 -11.785156 -0.890625 -12.421875 C 0.179688 -13.078125 1.09375 -13.578125 1.84375 -13.921875 C 2.601562 -14.265625 3.398438 -14.410156 4.234375 -14.359375 C 5.066406 -14.304688 5.859375 -13.898438 6.609375 -13.140625 C 7.253906 -12.492188 7.660156 -11.722656 7.828125 -10.828125 C 7.992188 -9.929688 7.867188 -8.960938 7.453125 -7.921875 C 7.046875 -6.890625 6.320312 -5.859375 5.28125 -4.828125 Z M 5.28125 -4.828125" transform="translate(109.845 123.462)"/></g></g></g><g fill="#BC1823"><g><g><path d="M -3.453125 -13.546875 L -7.578125 -10.53125 L -9.359375 -12.96875 L 1.890625 -21.1875 L 3.671875 -18.75 L -0.46875 -15.71875 L 7.1875 -5.25 L 4.203125 -3.078125 Z M -3.453125 -13.546875" transform="translate(121.087 112.47)"/></g></g></g><g fill="#BC1823"><g><g><path d="M 11.3125 -9.21875 L 12.671875 -6.578125 L 1.671875 -0.875 L -5.6875 -15.0625 L 5.046875 -20.625 L 6.40625 -17.984375 L -1.046875 -14.109375 L 0.5625 -11.03125 L 7.15625 -14.453125 L 8.46875 -11.90625 L 1.875 -8.484375 L 3.59375 -5.203125 Z M 11.3125 -9.21875" transform="translate(133.419 103.501)"/></g></g></g><g fill="#BC1823"><g><g><path d="M 11.484375 -3.734375 L 7.1875 -7.015625 L 7 -6.953125 L 3.953125 -5.953125 L 5.328125 -1.71875 L 1.796875 -0.578125 L -3.140625 -15.78125 L 3.4375 -17.921875 C 4.789062 -18.359375 6.035156 -18.515625 7.171875 -18.390625 C 8.316406 -18.265625 9.289062 -17.875 10.09375 -17.21875 C 10.90625 -16.570312 11.492188 -15.679688 11.859375 -14.546875 C 12.222656 -13.421875 12.265625 -12.359375 11.984375 -11.359375 C 11.703125 -10.367188 11.128906 -9.492188 10.265625 -8.734375 L 15.28125 -4.953125 Z M 8.28125 -13.390625 C 8 -14.242188 7.507812 -14.804688 6.8125 -15.078125 C 6.125 -15.359375 5.25 -15.328125 4.1875 -14.984375 L 1.328125 -14.046875 L 3.046875 -8.765625 L 5.90625 -9.703125 C 6.96875 -10.046875 7.695312 -10.535156 8.09375 -11.171875 C 8.488281 -11.804688 8.550781 -12.546875 8.28125 -13.390625 Z M 8.28125 -13.390625" transform="translate(147.966 95.987)"/></g></g></g><g fill="#BC1823"><g><g><path d="M 12.046875 -0.765625 L 8.703125 -5.015625 L 8.515625 -5 L 5.296875 -4.796875 L 5.578125 -0.359375 L 1.890625 -0.125 L 0.875 -16.078125 L 7.78125 -16.515625 C 9.195312 -16.609375 10.441406 -16.453125 11.515625 -16.046875 C 12.585938 -15.640625 13.429688 -15.019531 14.046875 -14.1875 C 14.660156 -13.351562 15.007812 -12.347656 15.09375 -11.171875 C 15.164062 -9.984375 14.941406 -8.941406 14.421875 -8.046875 C 13.898438 -7.148438 13.128906 -6.441406 12.109375 -5.921875 L 16.03125 -1.015625 Z M 11.34375 -10.9375 C 11.28125 -11.832031 10.945312 -12.5 10.34375 -12.9375 C 9.738281 -13.375 8.878906 -13.554688 7.765625 -13.484375 L 4.75 -13.296875 L 5.109375 -7.75 L 8.125 -7.9375 C 9.238281 -8.007812 10.066406 -8.304688 10.609375 -8.828125 C 11.148438 -9.347656 11.394531 -10.050781 11.34375 -10.9375 Z M 11.34375 -10.9375" transform="translate(172.937 89.086)"/></g></g></g><g fill="#BC1823"><g><g><path d="M 12.71875 -2.03125 L 5.34375 -2.859375 L 3.578125 0.390625 L -0.203125 -0.015625 L 8.640625 -15.125 L 12.28125 -14.71875 L 17.625 1.96875 L 13.765625 1.53125 Z M 11.890625 -4.953125 L 10.046875 -11.3125 L 6.84375 -5.515625 Z M 11.890625 -4.953125" transform="translate(190.67 88.01)"/></g></g></g><g fill="#BC1823"><g><g><path d="M 12.953125 -12.859375 C 14.316406 -12.460938 15.4375 -11.890625 16.3125 -11.140625 C 17.1875 -10.390625 17.769531 -9.519531 18.0625 -8.53125 C 18.351562 -7.539062 18.328125 -6.476562 17.984375 -5.34375 C 17.660156 -4.207031 17.101562 -3.296875 16.3125 -2.609375 C 15.53125 -1.929688 14.570312 -1.519531 13.4375 -1.375 C 12.300781 -1.226562 11.050781 -1.351562 9.6875 -1.75 L 6.609375 -2.65625 L 5.375 1.578125 L 1.8125 0.53125 L 6.3125 -14.8125 Z M 10.359375 -4.703125 C 11.421875 -4.390625 12.296875 -4.378906 12.984375 -4.671875 C 13.679688 -4.972656 14.148438 -5.550781 14.390625 -6.40625 C 14.648438 -7.257812 14.566406 -7.992188 14.140625 -8.609375 C 13.722656 -9.234375 12.984375 -9.703125 11.921875 -10.015625 L 9.03125 -10.859375 L 7.46875 -5.546875 Z M 10.359375 -4.703125" transform="translate(209.012 90.173)"/></g></g></g><g fill="#BC1823"><g><g><path d="M 12.65625 2.453125 L 6 -0.84375 L 3.21875 1.59375 L -0.1875 -0.09375 L 13.296875 -11.265625 L 16.578125 -9.640625 L 15.890625 7.859375 L 12.40625 6.140625 Z M 12.859375 -0.59375 L 13.296875 -7.21875 L 8.3125 -2.84375 Z M 12.859375 -0.59375" transform="translate(225.982 95.203)"/></g></g></g><g fill="#BC1823"><g><g><path d="M 10.828125 -11.90625 L 13.84375 -9.75 L 6.296875 0.796875 L 12.828125 5.46875 L 11.078125 7.921875 L 1.53125 1.09375 Z M 10.828125 -11.90625" transform="translate(242.506 103.641)"/></g></g></g><g fill="#BC1823"><g><g><path d="M 12.140625 -10.578125 L 14.875 -8.078125 L 4.140625 3.765625 L 1.40625 1.265625 Z M 12.140625 -10.578125" transform="translate(254.701 112.686)"/></g></g></g><g fill="#BC1823"><g><g><path d="M 22.890625 2.4375 L 10.625 12.703125 L 8.6875 10.375 L 11 -1.984375 L 3.5625 4.25 L 1.21875 1.453125 L 13.484375 -8.8125 L 15.4375 -6.46875 L 13.09375 5.859375 L 20.546875 -0.375 Z M 22.890625 2.4375" transform="translate(261.382 118.359)"/></g></g></g><g fill="#BC1823"><g><g><path d="M 4.421875 8.5625 C 3.617188 7.113281 3.207031 5.632812 3.1875 4.125 C 3.175781 2.613281 3.535156 1.222656 4.265625 -0.046875 C 5.003906 -1.316406 6.0625 -2.332031 7.4375 -3.09375 C 8.800781 -3.851562 10.210938 -4.207031 11.671875 -4.15625 C 13.140625 -4.113281 14.507812 -3.679688 15.78125 -2.859375 C 17.050781 -2.046875 18.085938 -0.914062 18.890625 0.53125 C 19.703125 1.976562 20.113281 3.453125 20.125 4.953125 C 20.144531 6.460938 19.789062 7.859375 19.0625 9.140625 C 18.332031 10.421875 17.285156 11.441406 15.921875 12.203125 C 14.546875 12.960938 13.125 13.3125 11.65625 13.25 C 10.1875 13.195312 8.816406 12.765625 7.546875 11.953125 C 6.273438 11.140625 5.234375 10.007812 4.421875 8.5625 Z M 7.1875 7.03125 C 7.65625 7.863281 8.257812 8.503906 9 8.953125 C 9.75 9.410156 10.570312 9.640625 11.46875 9.640625 C 12.363281 9.640625 13.242188 9.398438 14.109375 8.921875 C 14.972656 8.429688 15.632812 7.8125 16.09375 7.0625 C 16.5625 6.3125 16.800781 5.5 16.8125 4.625 C 16.832031 3.75 16.609375 2.894531 16.140625 2.0625 C 15.679688 1.238281 15.078125 0.597656 14.328125 0.140625 C 13.578125 -0.316406 12.757812 -0.546875 11.875 -0.546875 C 10.988281 -0.546875 10.113281 -0.300781 9.25 0.1875 C 8.382812 0.664062 7.710938 1.28125 7.234375 2.03125 C 6.765625 2.78125 6.523438 3.59375 6.515625 4.46875 C 6.503906 5.351562 6.726562 6.207031 7.1875 7.03125 Z M 7.1875 7.03125" transform="translate(273.756 133.202)"/></g></g></g><g fill="#BC1823"><g><g><path d="M 9.34375 -5.09375 L 7.375 -2.59375 L 11.734375 0.828125 L 10.359375 2.578125 L 6 -0.84375 L 3.3125 2.59375 L 1.125 0.875 L 8.515625 -8.5625 L 15.640625 -2.96875 L 14.28125 -1.21875 Z M 9.34375 -5.09375" transform="translate(111.897 281.661)"/></g></g></g><g fill="#BC1823"><g><g><path d="M 7.796875 4.609375 L 7.515625 0.5625 L 7.390625 0.484375 L 5.328125 -0.734375 L 3.625 2.140625 L 1.21875 0.71875 L 7.328125 -9.59375 L 11.796875 -6.953125 C 12.710938 -6.410156 13.414062 -5.785156 13.90625 -5.078125 C 14.394531 -4.378906 14.65625 -3.640625 14.6875 -2.859375 C 14.71875 -2.085938 14.507812 -1.320312 14.0625 -0.5625 C 13.601562 0.207031 13.023438 0.757812 12.328125 1.09375 C 11.628906 1.4375 10.859375 1.546875 10.015625 1.421875 L 10.359375 6.125 Z M 11.640625 -2 C 11.984375 -2.570312 12.054688 -3.125 11.859375 -3.65625 C 11.671875 -4.1875 11.21875 -4.664062 10.5 -5.09375 L 8.578125 -6.234375 L 6.453125 -2.640625 L 8.375 -1.5 C 9.09375 -1.070312 9.726562 -0.90625 10.28125 -1 C 10.84375 -1.09375 11.296875 -1.425781 11.640625 -2 Z M 11.640625 -2" transform="translate(123.24 290.344)"/></g></g></g><g fill="#BC1823"><g><g><path d="M 6.265625 -10.3125 L 8.796875 -9.15625 L 3.828125 1.75 L 1.296875 0.59375 Z M 6.265625 -10.3125" transform="translate(136.993 298.07)"/></g></g></g><g fill="#BC1823"><g><g><path d="M 10.96875 -2.890625 L 13.390625 -2.09375 L 11.859375 2.53125 C 11.085938 2.789062 10.253906 2.910156 9.359375 2.890625 C 8.472656 2.867188 7.613281 2.722656 6.78125 2.453125 C 5.601562 2.054688 4.625 1.445312 3.84375 0.625 C 3.0625 -0.1875 2.550781 -1.125 2.3125 -2.1875 C 2.082031 -3.257812 2.148438 -4.363281 2.515625 -5.5 C 2.890625 -6.625 3.488281 -7.539062 4.3125 -8.25 C 5.144531 -8.96875 6.125 -9.421875 7.25 -9.609375 C 8.375 -9.796875 9.535156 -9.691406 10.734375 -9.296875 C 11.722656 -8.972656 12.566406 -8.503906 13.265625 -7.890625 C 13.960938 -7.285156 14.484375 -6.578125 14.828125 -5.765625 L 12.625 -4.765625 C 12.09375 -5.878906 11.25 -6.628906 10.09375 -7.015625 C 9.375 -7.253906 8.679688 -7.3125 8.015625 -7.1875 C 7.359375 -7.070312 6.78125 -6.789062 6.28125 -6.34375 C 5.78125 -5.894531 5.410156 -5.316406 5.171875 -4.609375 C 4.941406 -3.890625 4.894531 -3.203125 5.03125 -2.546875 C 5.164062 -1.898438 5.457031 -1.328125 5.90625 -0.828125 C 6.363281 -0.335938 6.945312 0.0234375 7.65625 0.265625 C 8.414062 0.515625 9.15625 0.578125 9.875 0.453125 Z M 10.96875 -2.890625" transform="translate(145.018 301.765)"/></g></g></g><g fill="#BC1823"><g><g><path d="M 7.09375 1.421875 C 5.863281 1.210938 4.800781 0.757812 3.90625 0.0625 C 3.007812 -0.632812 2.363281 -1.492188 1.96875 -2.515625 C 1.570312 -3.546875 1.472656 -4.640625 1.671875 -5.796875 C 1.867188 -6.953125 2.320312 -7.941406 3.03125 -8.765625 C 3.75 -9.597656 4.644531 -10.195312 5.71875 -10.5625 C 6.800781 -10.925781 7.957031 -11.003906 9.1875 -10.796875 C 10.414062 -10.585938 11.472656 -10.128906 12.359375 -9.421875 C 13.242188 -8.722656 13.882812 -7.863281 14.28125 -6.84375 C 14.6875 -5.820312 14.789062 -4.734375 14.59375 -3.578125 C 14.394531 -2.421875 13.9375 -1.425781 13.21875 -0.59375 C 12.5 0.238281 11.601562 0.832031 10.53125 1.1875 C 9.46875 1.550781 8.320312 1.628906 7.09375 1.421875 Z M 7.484375 -0.90625 C 8.171875 -0.78125 8.828125 -0.832031 9.453125 -1.0625 C 10.078125 -1.289062 10.597656 -1.660156 11.015625 -2.171875 C 11.441406 -2.691406 11.71875 -3.316406 11.84375 -4.046875 C 11.96875 -4.773438 11.914062 -5.457031 11.6875 -6.09375 C 11.46875 -6.726562 11.097656 -7.25 10.578125 -7.65625 C 10.066406 -8.070312 9.46875 -8.34375 8.78125 -8.46875 C 8.082031 -8.582031 7.425781 -8.53125 6.8125 -8.3125 C 6.195312 -8.09375 5.675781 -7.722656 5.25 -7.203125 C 4.832031 -6.679688 4.5625 -6.054688 4.4375 -5.328125 C 4.3125 -4.597656 4.359375 -3.914062 4.578125 -3.28125 C 4.804688 -2.65625 5.171875 -2.128906 5.671875 -1.703125 C 6.179688 -1.285156 6.785156 -1.019531 7.484375 -0.90625 Z M 7.484375 -0.90625" transform="translate(160.903 306.789)"/></g></g></g><g fill="#BC1823"><g><g><path d="M 7.15625 0.375 C 5.9375 0.34375 4.835938 0.0507812 3.859375 -0.5 C 2.878906 -1.050781 2.117188 -1.804688 1.578125 -2.765625 C 1.035156 -3.722656 0.78125 -4.796875 0.8125 -5.984375 C 0.84375 -7.171875 1.148438 -8.222656 1.734375 -9.140625 C 2.316406 -10.066406 3.109375 -10.785156 4.109375 -11.296875 C 5.109375 -11.804688 6.222656 -12.046875 7.453125 -12.015625 C 8.492188 -11.992188 9.429688 -11.789062 10.265625 -11.40625 C 11.097656 -11.019531 11.789062 -10.476562 12.34375 -9.78125 L 10.53125 -8.171875 C 9.738281 -9.128906 8.742188 -9.625 7.546875 -9.65625 C 6.804688 -9.675781 6.140625 -9.53125 5.546875 -9.21875 C 4.953125 -8.90625 4.484375 -8.460938 4.140625 -7.890625 C 3.804688 -7.316406 3.628906 -6.660156 3.609375 -5.921875 C 3.585938 -5.171875 3.734375 -4.5 4.046875 -3.90625 C 4.367188 -3.320312 4.816406 -2.859375 5.390625 -2.515625 C 5.960938 -2.179688 6.617188 -2.003906 7.359375 -1.984375 C 8.554688 -1.953125 9.570312 -2.398438 10.40625 -3.328125 L 12.15625 -1.65625 C 11.5625 -0.96875 10.835938 -0.453125 9.984375 -0.109375 C 9.140625 0.234375 8.195312 0.394531 7.15625 0.375 Z M 7.15625 0.375" transform="translate(178.584 309.495)"/></g></g></g><g fill="#BC1823"><g><g><path d="M 8.953125 -3.625 L 3.421875 -2.984375 L 2.671875 -0.3125 L -0.15625 0.015625 L 3.765625 -12.515625 L 6.484375 -12.828125 L 13.1875 -1.546875 L 10.296875 -1.203125 Z M 7.828125 -5.625 L 5.421875 -9.96875 L 4.0625 -5.1875 Z M 7.828125 -5.625" transform="translate(194.536 309.651)"/></g></g></g><g fill="#BC1823"><g><g><path d="M 8.765625 -2.296875 L 5.6875 -4.953125 L 5.546875 -4.921875 L 3.21875 -4.296875 L 4.0625 -1.0625 L 1.375 -0.359375 L -1.671875 -11.953125 L 3.34375 -13.28125 C 4.375 -13.539062 5.3125 -13.597656 6.15625 -13.453125 C 7 -13.316406 7.707031 -12.984375 8.28125 -12.453125 C 8.851562 -11.929688 9.253906 -11.242188 9.484375 -10.390625 C 9.710938 -9.523438 9.703125 -8.722656 9.453125 -7.984375 C 9.203125 -7.253906 8.734375 -6.628906 8.046875 -6.109375 L 11.640625 -3.0625 Z M 6.765625 -9.671875 C 6.585938 -10.316406 6.242188 -10.757812 5.734375 -11 C 5.234375 -11.25 4.578125 -11.269531 3.765625 -11.0625 L 1.59375 -10.484375 L 2.65625 -6.421875 L 4.828125 -7 C 5.640625 -7.207031 6.207031 -7.539062 6.53125 -8 C 6.851562 -8.46875 6.929688 -9.023438 6.765625 -9.671875 Z M 6.765625 -9.671875" transform="translate(210.908 307.473)"/></g></g></g><g fill="#BC1823"><g><g><path d="M 6.765625 -15.875 L 11.4375 -4.84375 L 9.34375 -3.953125 L 0.984375 -8.328125 L 3.828125 -1.625 L 1.3125 -0.546875 L -3.359375 -11.578125 L -1.25 -12.484375 L 7.078125 -8.09375 L 4.234375 -14.796875 Z M 6.765625 -15.875" transform="translate(226.34 303.21)"/></g></g></g><g fill="#BC1823"><g><g><path d="M 8.046875 -7.40625 L 9.1875 -5.5 L 1.21875 -0.734375 L -4.9375 -11.015625 L 2.84375 -15.671875 L 3.984375 -13.765625 L -1.4375 -10.515625 L -0.09375 -8.28125 L 4.6875 -11.140625 L 5.796875 -9.296875 L 1.015625 -6.4375 L 2.4375 -4.046875 Z M 8.046875 -7.40625" transform="translate(242.072 296.203)"/></g></g></g><g fill="#BC1823"><g><g><path d="M 4.34375 -3.15625 C 3.59375 -2.5625 2.789062 -2.09375 1.9375 -1.75 C 1.09375 -1.40625 0.328125 -1.234375 -0.359375 -1.234375 L -0.890625 -3.4375 C -0.265625 -3.457031 0.394531 -3.597656 1.09375 -3.859375 C 1.789062 -4.117188 2.421875 -4.46875 2.984375 -4.90625 C 3.609375 -5.394531 3.992188 -5.84375 4.140625 -6.25 C 4.296875 -6.664062 4.25 -7.03125 4 -7.34375 C 3.832031 -7.5625 3.597656 -7.675781 3.296875 -7.6875 C 3.003906 -7.695312 2.6875 -7.640625 2.34375 -7.515625 C 2.007812 -7.398438 1.570312 -7.210938 1.03125 -6.953125 C 0.164062 -6.566406 -0.5625 -6.28125 -1.15625 -6.09375 C -1.75 -5.90625 -2.359375 -5.867188 -2.984375 -5.984375 C -3.609375 -6.097656 -4.164062 -6.46875 -4.65625 -7.09375 C -5.082031 -7.644531 -5.320312 -8.257812 -5.375 -8.9375 C -5.425781 -9.613281 -5.253906 -10.316406 -4.859375 -11.046875 C -4.460938 -11.773438 -3.835938 -12.476562 -2.984375 -13.15625 C -2.367188 -13.625 -1.71875 -14.007812 -1.03125 -14.3125 C -0.351562 -14.625 0.3125 -14.8125 0.96875 -14.875 L 1.5625 -12.703125 C 0.3125 -12.515625 -0.75 -12.078125 -1.625 -11.390625 C -2.238281 -10.910156 -2.613281 -10.457031 -2.75 -10.03125 C -2.882812 -9.601562 -2.820312 -9.226562 -2.5625 -8.90625 C -2.3125 -8.582031 -1.953125 -8.472656 -1.484375 -8.578125 C -1.023438 -8.679688 -0.394531 -8.929688 0.40625 -9.328125 C 1.257812 -9.722656 1.984375 -10.015625 2.578125 -10.203125 C 3.179688 -10.390625 3.789062 -10.425781 4.40625 -10.3125 C 5.019531 -10.207031 5.570312 -9.84375 6.0625 -9.21875 C 6.488281 -8.675781 6.722656 -8.0625 6.765625 -7.375 C 6.804688 -6.6875 6.628906 -5.976562 6.234375 -5.25 C 5.835938 -4.519531 5.207031 -3.820312 4.34375 -3.15625 Z M 4.34375 -3.15625" transform="translate(254.653 288.41)"/></g></g></g></svg>