<svg xmlns="http://www.w3.org/2000/svg" width="375" viewBox="0 0 375 375" height="375" version="1.0"><defs><clipPath id="a"><path d="M 40.0625 45 L 334.8125 45 L 334.8125 330.234375 L 40.0625 330.234375 Z M 40.0625 45"/></clipPath></defs><g clip-path="url(#a)"><path fill="#FFF" d="M 187.4375 66.222656 C 186.21875 66.226562 185.066406 65.945312 183.984375 65.386719 C 180.273438 63.464844 176.332031 62.621094 172.160156 62.851562 C 164.042969 63.128906 162.253906 66.152344 154.410156 67.804688 C 146.566406 69.453125 141.609375 68.492188 132.527344 78.121094 C 118.492188 81.289062 103.902344 88.023438 88.492188 88.164062 C 74.871094 88.292969 61.613281 81.609375 60.28125 65.742188 C 60.28125 65.742188 59.460938 53.660156 59.785156 49.644531 C 60.027344 46.667969 58.773438 44.679688 57.027344 45.136719 C 48.992188 47.226562 41.792969 67.609375 40.996094 75.722656 C 40.082031 85.042969 42.796875 93.453125 49.703125 102.703125 C 55.617188 110.628906 64.488281 117.667969 77.0625 119.792969 C 96.246094 115.359375 108.394531 119.421875 113.28125 121.738281 C 113.359375 121.777344 113.417969 121.835938 113.457031 121.917969 C 113.492188 122.003906 113.492188 122.085938 113.464844 122.171875 C 113.4375 122.257812 113.382812 122.320312 113.304688 122.367188 C 113.226562 122.410156 113.144531 122.421875 113.054688 122.402344 C 82.992188 115.46875 60.960938 137.277344 46.121094 125.605469 C 45.953125 125.46875 45.769531 125.445312 45.574219 125.53125 C 45.375 125.617188 45.269531 125.769531 45.253906 125.980469 C 44.730469 131.441406 50.628906 134.574219 51.464844 134.921875 C 51.464844 134.921875 47.132812 135.914062 44.453125 132.609375 C 44.375 132.5 44.265625 132.457031 44.128906 132.480469 C 43.996094 132.507812 43.910156 132.585938 43.875 132.71875 C 41.371094 144.667969 50.90625 165.253906 70.320312 168.621094 C 82.609375 170.753906 86.898438 167.886719 93.699219 167.519531 C 96.296875 167.378906 99.5625 167.160156 103.359375 168.324219 C 103.484375 168.371094 103.605469 168.371094 103.730469 168.324219 C 103.851562 168.273438 103.941406 168.191406 104 168.070312 C 104.058594 167.953125 104.066406 167.828125 104.027344 167.703125 C 103.988281 167.578125 103.910156 167.480469 103.796875 167.414062 C 86.6875 155.675781 58.53125 168.140625 56.835938 139.460938 C 71.007812 142.898438 87.800781 138.773438 90.277344 136.296875 C 90.148438 138.378906 85.453125 142.3125 79.699219 142.375 C 79.589844 142.371094 79.523438 142.425781 79.5 142.53125 C 79.476562 142.640625 79.511719 142.714844 79.613281 142.761719 C 89.046875 146.808594 93.605469 139.0625 98.8125 139.59375 C 98 140.152344 97.304688 140.828125 96.726562 141.628906 C 96.152344 142.425781 95.726562 143.300781 95.453125 144.246094 C 95.375 144.480469 95.4375 144.671875 95.632812 144.824219 C 95.824219 144.976562 96.027344 144.984375 96.234375 144.851562 C 99.683594 142.601562 105 140.371094 108.445312 141.109375 C 106.738281 142.179688 105.445312 143.625 104.5625 145.441406 C 104.472656 145.625 104.492188 145.792969 104.628906 145.949219 C 104.761719 146.105469 104.925781 146.148438 105.121094 146.085938 C 106.035156 145.800781 106.96875 145.691406 107.921875 145.757812 C 108.875 145.824219 109.785156 146.0625 110.648438 146.472656 C 112.035156 143.242188 115.9375 138.945312 120.246094 137.238281 C 120.4375 137.164062 120.585938 137.214844 120.683594 137.394531 C 120.785156 137.574219 120.753906 137.726562 120.589844 137.847656 C 113.1875 143.59375 109.640625 161.371094 117.957031 172.257812 C 119.027344 173.625 119.535156 175.175781 119.476562 176.910156 C 118.890625 190.960938 126.421875 208.558594 129.914062 216.894531 C 134.652344 228.207031 133.347656 251.847656 136.59375 261.589844 C 136.660156 261.785156 136.800781 261.882812 137.007812 261.882812 C 137.214844 261.882812 137.351562 261.785156 137.417969 261.589844 C 140.054688 254.421875 152.222656 252.113281 151.777344 230.851562 C 151.773438 230.734375 151.808594 230.632812 151.878906 230.539062 C 151.953125 230.449219 152.046875 230.390625 152.160156 230.367188 C 152.273438 230.347656 152.382812 230.363281 152.484375 230.417969 C 152.585938 230.476562 152.660156 230.558594 152.699219 230.667969 C 155.550781 239.003906 153.003906 248.734375 150.007812 253.480469 C 148.097656 256.503906 142.359375 263.210938 140.097656 269.984375 C 137.347656 278.238281 138.449219 282.792969 138.449219 287.867188 C 138.449219 293.09375 135.597656 300.976562 136.519531 306.296875 C 137.621094 312.625 142.574219 321.703125 150.558594 321.703125 C 159.5 321.703125 163.699219 314.824219 172.40625 315.164062 C 172.519531 315.167969 172.621094 315.210938 172.707031 315.285156 C 172.792969 315.363281 172.847656 315.457031 172.867188 315.574219 C 172.886719 315.6875 172.867188 315.792969 172.8125 315.894531 C 172.757812 315.996094 172.675781 316.070312 172.566406 316.113281 C 167.722656 318.109375 163.21875 321.050781 163.21875 322.527344 C 163.21875 325.277344 166.246094 329.683594 175.054688 327.753906 C 177.253906 329.277344 182.34375 330.03125 187.4375 330.03125 C 192.527344 330.03125 197.621094 329.277344 199.820312 327.761719 C 208.628906 329.6875 211.65625 325.285156 211.65625 322.535156 C 211.65625 321.058594 207.152344 318.117188 202.308594 316.121094 C 202.203125 316.078125 202.121094 316.003906 202.0625 315.902344 C 202.007812 315.800781 201.988281 315.695312 202.007812 315.582031 C 202.027344 315.464844 202.082031 315.371094 202.167969 315.292969 C 202.253906 315.21875 202.355469 315.175781 202.472656 315.171875 C 211.175781 314.832031 215.375 321.710938 224.320312 321.710938 C 232.300781 321.710938 237.253906 312.632812 238.355469 306.304688 C 239.28125 300.980469 236.429688 293.101562 236.429688 287.875 C 236.429688 282.800781 237.53125 278.25 234.777344 269.992188 C 232.519531 263.21875 226.78125 256.511719 224.867188 253.488281 C 221.871094 248.742188 219.328125 239.011719 222.175781 230.675781 C 222.21875 230.566406 222.289062 230.484375 222.390625 230.425781 C 222.492188 230.371094 222.601562 230.351562 222.71875 230.375 C 222.832031 230.398438 222.925781 230.457031 222.996094 230.546875 C 223.070312 230.640625 223.105469 230.742188 223.101562 230.859375 C 222.652344 252.121094 234.820312 254.429688 237.457031 261.597656 C 237.523438 261.792969 237.660156 261.890625 237.871094 261.890625 C 238.078125 261.890625 238.214844 261.792969 238.28125 261.597656 C 241.527344 251.855469 240.226562 228.214844 244.960938 216.902344 C 248.453125 208.566406 255.988281 190.96875 255.398438 176.917969 C 255.34375 175.183594 255.851562 173.632812 256.917969 172.265625 C 265.238281 161.378906 261.691406 143.601562 254.289062 137.855469 C 254.125 137.734375 254.09375 137.582031 254.191406 137.402344 C 254.292969 137.222656 254.4375 137.171875 254.628906 137.246094 C 258.9375 138.953125 262.84375 143.25 264.230469 146.480469 C 265.09375 146.070312 266 145.832031 266.957031 145.765625 C 267.910156 145.699219 268.84375 145.808594 269.753906 146.09375 C 269.949219 146.15625 270.113281 146.113281 270.25 145.957031 C 270.382812 145.800781 270.40625 145.632812 270.3125 145.449219 C 269.433594 143.632812 268.136719 142.191406 266.429688 141.113281 C 269.875 140.378906 275.195312 142.609375 278.640625 144.859375 C 278.847656 144.992188 279.050781 144.984375 279.246094 144.832031 C 279.441406 144.679688 279.5 144.488281 279.421875 144.253906 C 279.152344 143.308594 278.726562 142.433594 278.148438 141.636719 C 277.574219 140.835938 276.878906 140.160156 276.066406 139.601562 C 281.269531 139.070312 285.828125 146.8125 295.261719 142.769531 C 295.363281 142.722656 295.402344 142.644531 295.375 142.539062 C 295.351562 142.433594 295.285156 142.378906 295.175781 142.382812 C 289.421875 142.320312 284.730469 138.386719 284.601562 136.304688 C 287.078125 138.777344 303.867188 142.90625 318.039062 139.46875 C 316.347656 168.148438 288.191406 155.679688 271.078125 167.421875 C 270.964844 167.488281 270.890625 167.585938 270.851562 167.710938 C 270.8125 167.835938 270.820312 167.957031 270.878906 168.078125 C 270.933594 168.195312 271.023438 168.28125 271.144531 168.328125 C 271.269531 168.378906 271.390625 168.378906 271.515625 168.332031 C 275.316406 167.167969 278.582031 167.382812 281.175781 167.527344 C 287.976562 167.894531 292.265625 170.761719 304.558594 168.628906 C 323.96875 165.261719 333.503906 144.675781 331 132.726562 C 330.96875 132.59375 330.882812 132.515625 330.746094 132.488281 C 330.609375 132.464844 330.503906 132.507812 330.421875 132.617188 C 327.742188 135.921875 323.410156 134.929688 323.410156 134.929688 C 324.25 134.582031 330.148438 131.445312 329.621094 125.988281 C 329.605469 125.773438 329.5 125.625 329.304688 125.539062 C 329.105469 125.453125 328.925781 125.476562 328.757812 125.613281 C 313.917969 137.285156 291.886719 115.480469 261.820312 122.410156 C 261.734375 122.429688 261.652344 122.417969 261.570312 122.375 C 261.492188 122.328125 261.441406 122.265625 261.410156 122.179688 C 261.382812 122.09375 261.386719 122.011719 261.421875 121.925781 C 261.457031 121.84375 261.515625 121.785156 261.597656 121.746094 C 266.484375 119.429688 278.632812 115.367188 297.8125 119.800781 C 310.390625 117.671875 319.261719 110.632812 325.175781 102.707031 C 332.082031 93.457031 334.800781 85.050781 333.882812 75.726562 C 333.085938 67.613281 325.886719 47.226562 317.855469 45.140625 C 316.109375 44.6875 314.851562 46.675781 315.09375 49.652344 C 315.417969 53.664062 314.601562 65.746094 314.601562 65.746094 C 313.265625 81.617188 300.015625 88.296875 286.390625 88.171875 C 270.976562 88.03125 256.386719 81.289062 242.355469 78.125 C 233.265625 68.488281 228.308594 69.453125 220.464844 67.800781 C 212.621094 66.152344 210.835938 63.125 202.710938 62.851562 C 198.539062 62.617188 194.597656 63.460938 190.890625 65.382812 C 189.808594 65.945312 188.65625 66.226562 187.4375 66.222656 Z M 187.4375 285.671875 C 176.746094 285.671875 160.539062 283.113281 154.796875 269.332031 C 154.71875 269.136719 154.578125 269.042969 154.367188 269.046875 C 154.160156 269.050781 154.019531 269.152344 153.953125 269.347656 C 151.234375 276.414062 158.949219 283.148438 158.949219 286.5 C 158.949219 289.800781 154.558594 295.25 159.984375 298.671875 C 163.511719 300.898438 168.042969 299.285156 169.96875 293.980469 C 170 293.878906 170.0625 293.796875 170.152344 293.738281 C 170.246094 293.675781 170.34375 293.652344 170.453125 293.664062 C 170.558594 293.679688 170.652344 293.722656 170.726562 293.800781 C 170.804688 293.878906 170.847656 293.972656 170.855469 294.078125 C 171.238281 298.769531 169.175781 305.273438 161.84375 305.273438 C 152.964844 305.273438 151.3125 295.785156 151.933594 289.800781 C 152.484375 284.464844 150.902344 281.339844 147.597656 280.101562 C 144.296875 278.867188 144.164062 273.464844 145.121094 270.40625 C 146.152344 267.105469 149.042969 266.074219 150.488281 262.566406 C 151.214844 260.808594 153.585938 259.058594 158.332031 259.058594 C 165.351562 259.058594 172.988281 268.960938 187.4375 268.960938 C 201.890625 268.960938 209.527344 259.058594 216.546875 259.058594 C 221.292969 259.058594 223.664062 260.808594 224.390625 262.566406 C 225.835938 266.074219 228.722656 267.105469 229.757812 270.40625 C 230.710938 273.464844 230.582031 278.867188 227.28125 280.101562 C 223.976562 281.339844 222.394531 284.464844 222.945312 289.800781 C 223.5625 295.785156 221.914062 305.273438 213.035156 305.273438 C 205.703125 305.273438 203.636719 298.769531 204.023438 294.078125 C 204.03125 293.972656 204.074219 293.878906 204.148438 293.800781 C 204.226562 293.722656 204.316406 293.679688 204.425781 293.664062 C 204.535156 293.652344 204.632812 293.675781 204.722656 293.738281 C 204.816406 293.796875 204.878906 293.878906 204.910156 293.980469 C 206.835938 299.285156 211.367188 300.898438 214.894531 298.671875 C 220.316406 295.253906 215.929688 289.800781 215.929688 286.5 C 215.929688 283.148438 223.644531 276.414062 220.925781 269.347656 C 220.859375 269.152344 220.71875 269.050781 220.511719 269.046875 C 220.300781 269.042969 220.160156 269.136719 220.082031 269.332031 C 214.339844 283.113281 198.128906 285.671875 187.441406 285.671875 Z M 254.46875 110.710938 C 254.429688 110.824219 254.363281 110.910156 254.261719 110.96875 C 254.160156 111.03125 254.050781 111.050781 253.9375 111.03125 C 253.820312 111.011719 253.726562 110.957031 253.648438 110.867188 C 253.574219 110.777344 253.539062 110.671875 253.539062 110.554688 C 253.628906 103.855469 252 94.230469 249.992188 90.277344 C 249.886719 90.097656 249.902344 89.925781 250.03125 89.761719 C 250.164062 89.597656 250.328125 89.546875 250.527344 89.605469 C 265.652344 94.101562 288.785156 99.539062 301.59375 94.003906 C 315.824219 87.855469 320.675781 76.855469 318.726562 62.023438 C 318.65625 61.496094 319.492188 61.390625 319.691406 61.886719 C 323.898438 72.367188 323.613281 80.207031 316.902344 89.542969 C 311 97.757812 301.40625 102.742188 290.746094 103.253906 C 279.941406 103.773438 267.496094 102.042969 260.960938 102.234375 C 260.464844 102.25 259.976562 102.335938 259.503906 102.488281 C 259.03125 102.644531 258.589844 102.863281 258.179688 103.144531 C 257.769531 103.425781 257.40625 103.757812 257.089844 104.144531 C 256.777344 104.527344 256.523438 104.953125 256.332031 105.410156 C 255.746094 106.8125 255.175781 108.621094 254.46875 110.710938 Z M 238.957031 171.636719 C 237.992188 158.246094 246.167969 151.359375 250.605469 151.359375 C 252.667969 151.359375 256.589844 154.25 254.113281 162.089844 C 251.515625 170.308594 242.960938 172.125 240.035156 172.511719 C 239.90625 172.53125 239.777344 172.519531 239.652344 172.484375 C 239.527344 172.449219 239.410156 172.390625 239.308594 172.304688 C 239.207031 172.222656 239.125 172.125 239.066406 172.007812 C 239.003906 171.890625 238.96875 171.769531 238.957031 171.636719 Z M 222.476562 183.785156 C 222.160156 183.316406 221.921875 182.808594 221.753906 182.265625 C 221.585938 181.726562 221.496094 181.171875 221.484375 180.605469 C 221.476562 180.039062 221.546875 179.480469 221.695312 178.933594 C 221.84375 178.386719 222.070312 177.875 222.367188 177.390625 C 225.167969 172.878906 228.582031 165.214844 229.640625 160.398438 C 229.667969 160.273438 229.730469 160.167969 229.828125 160.085938 C 229.925781 160.007812 230.039062 159.964844 230.167969 159.964844 C 230.296875 159.964844 230.410156 160.003906 230.511719 160.085938 C 230.613281 160.164062 230.675781 160.265625 230.703125 160.394531 C 231.808594 166.457031 227.28125 175.039062 227.28125 179.421875 C 227.28125 185.816406 229.34375 189.738281 232.929688 194.582031 C 233.292969 195.070312 232.542969 195.644531 232.09375 195.234375 C 228.476562 191.761719 225.273438 187.945312 222.476562 183.789062 Z M 120.410156 110.710938 C 119.703125 108.621094 119.136719 106.8125 118.550781 105.410156 C 118.355469 104.949219 118.101562 104.527344 117.789062 104.144531 C 117.472656 103.757812 117.109375 103.421875 116.699219 103.140625 C 116.289062 102.859375 115.847656 102.644531 115.375 102.488281 C 114.902344 102.335938 114.417969 102.25 113.917969 102.234375 C 107.382812 102.039062 94.9375 103.773438 84.132812 103.253906 C 73.472656 102.742188 63.882812 97.757812 57.976562 89.542969 C 51.261719 80.203125 50.976562 72.367188 55.1875 61.886719 C 55.386719 61.390625 56.222656 61.496094 56.152344 62.023438 C 54.203125 76.851562 59.054688 87.851562 73.285156 94.003906 C 86.09375 99.539062 109.226562 94.101562 124.351562 89.605469 C 124.550781 89.546875 124.714844 89.597656 124.847656 89.761719 C 124.976562 89.925781 124.992188 90.097656 124.890625 90.277344 C 122.878906 94.230469 121.25 103.855469 121.339844 110.554688 C 121.34375 110.671875 121.304688 110.777344 121.230469 110.867188 C 121.15625 110.957031 121.058594 111.011719 120.941406 111.03125 C 120.828125 111.050781 120.71875 111.027344 120.617188 110.96875 C 120.515625 110.90625 120.449219 110.820312 120.410156 110.710938 Z M 135.917969 171.636719 C 135.90625 171.765625 135.871094 171.890625 135.8125 172.007812 C 135.75 172.121094 135.667969 172.222656 135.566406 172.304688 C 135.464844 172.386719 135.351562 172.445312 135.226562 172.484375 C 135.097656 172.519531 134.972656 172.527344 134.839844 172.511719 C 131.914062 172.125 123.359375 170.308594 120.761719 162.089844 C 118.285156 154.25 122.207031 151.359375 124.273438 151.359375 C 128.707031 151.359375 136.882812 158.246094 135.917969 171.636719 Z M 152.402344 183.785156 C 149.609375 187.945312 146.402344 191.761719 142.785156 195.230469 C 142.335938 195.640625 141.585938 195.066406 141.949219 194.578125 C 145.535156 189.734375 147.597656 185.816406 147.597656 179.417969 C 147.597656 175.035156 143.070312 166.453125 144.175781 160.390625 C 144.203125 160.265625 144.269531 160.160156 144.367188 160.082031 C 144.46875 160 144.582031 159.960938 144.710938 159.960938 C 144.839844 159.960938 144.953125 160.003906 145.050781 160.085938 C 145.152344 160.167969 145.210938 160.269531 145.238281 160.394531 C 146.296875 165.207031 149.710938 172.875 152.515625 177.386719 C 152.8125 177.871094 153.035156 178.386719 153.183594 178.933594 C 153.332031 179.480469 153.402344 180.039062 153.390625 180.605469 C 153.382812 181.171875 153.292969 181.726562 153.125 182.265625 C 152.953125 182.808594 152.714844 183.316406 152.398438 183.785156 Z M 152.402344 183.785156" fill-rule="evenodd"/></g></svg>